# xmcd CD database file
#
# Track frame offsets:
#	150
#	11037
#	20305
#	30645
#	36620
#	48552
#	60727
#	70815
#	80330
#	93132
#
# Disc length: 1323 seconds
#
# Revision: 0
# Processed by: cddbd v1.4PL0 Copyright (c) Steve Scherf et al.
# Submitted via: CDex 1.40Beta8
#
DISCID=7b05290a
DTITLE=Hank Williams Sr. - Jambalaya
DYEAR=1996
DGENRE=Country
TTITLE0=Go On And Break Your Crazy Heart
TTITLE1=My Main Trial Is Yet To Come
TTITLE2=Log Train
TTITLE3=I've Been A Fool About You
TTITLE4=I Can't Escape From You
TTITLE5=Wild Side Of Life
TTITLE6=Keep It On Your Mind
TTITLE7=No, Not Now
TTITLE8=Jambalaya
TTITLE9=Dear John
EXTD=YEAR: 1996 ID3G: 2
EXTT0=
EXTT1=
EXTT2=
EXTT3=
EXTT4=
EXTT5=
EXTT6=
EXTT7=
EXTT8=
EXTT9=
PLAYORDER=
